<svg xmlns="http://www.w3.org/2000/svg" fill-rule="evenodd" stroke-linejoin="round" stroke-miterlimit="2" clip-rule="evenodd" viewBox="0 0 24 24"><g transform="translate(-40 -40)"><rect width="24" height="24" x="40" y="40" fill="none"/><path fill="#2c2c2c" d="M234.737,57.621C233.709,55.959 233.115,54.001 233.115,51.905C233.115,45.898 237.992,41.021 244,41.021C250.008,41.021 254.885,45.898 254.885,51.905C254.885,57.913 250.008,62.79 244,62.79C242.049,62.79 240.217,62.276 238.632,61.375L234.286,62.749C233.955,62.853 233.593,62.758 233.357,62.504C233.12,62.25 233.05,61.882 233.178,61.559L234.737,57.621ZM238.474,59.537C238.716,59.461 238.989,59.487 239.22,59.631C240.608,60.493 242.246,60.99 244,60.99C249.014,60.99 253.085,56.92 253.085,51.905C253.085,46.891 249.014,42.821 244,42.821C238.986,42.821 234.915,46.891 234.915,51.905C234.915,53.799 235.495,55.558 236.488,57.014C236.662,57.268 236.688,57.583 236.581,57.852L235.549,60.462L238.474,59.537ZM239.022,47.099L239.128,46.989C240.142,45.975 241.69,45.957 242.58,46.847C242.716,46.983 242.856,47.123 242.992,47.259C243.454,47.721 243.699,48.37 243.654,49.069C243.63,49.431 243.528,49.791 243.356,50.122C243.691,50.584 244.084,51.045 244.527,51.489C244.965,51.926 245.419,52.314 245.875,52.646C246.826,52.125 247.982,52.25 248.705,52.972C248.841,53.108 248.98,53.248 249.117,53.384C249.579,53.846 249.824,54.494 249.779,55.193C249.737,55.833 249.45,56.466 248.968,56.947L248.841,57.075C248.202,57.713 247.193,57.955 245.975,57.694C244.551,57.39 242.78,56.381 241.208,54.809C239.636,53.236 238.626,51.465 238.322,50.042C238.061,48.823 238.303,47.814 238.941,47.175C238.967,47.149 238.994,47.124 239.022,47.099ZM247.655,55.713L247.568,55.802C247.301,56.069 246.86,56.043 246.351,55.934C245.188,55.685 243.765,54.82 242.48,53.536C241.196,52.251 240.331,50.828 240.082,49.665C239.973,49.156 239.948,48.715 240.214,48.448L240.4,48.262C240.67,47.992 241.071,47.884 241.307,48.12C241.443,48.256 241.583,48.396 241.719,48.532C241.825,48.638 241.868,48.792 241.858,48.952C241.844,49.156 241.75,49.356 241.603,49.516C241.328,49.816 241.29,50.264 241.509,50.608C241.971,51.331 242.558,52.065 243.254,52.762C243.95,53.457 244.684,54.044 245.407,54.506C245.762,54.733 246.228,54.683 246.527,54.385C246.796,54.117 247.196,54.009 247.432,54.245C247.568,54.381 247.708,54.52 247.844,54.657C247.95,54.763 247.993,54.916 247.982,55.077C247.968,55.296 247.861,55.509 247.695,55.675L247.655,55.713Z" transform="translate(-192)"/></g></svg>